<!-- Generator: Adobe Illustrator 19.1.0, SVG Export Plug-In . SVG Version: 6.00 Build 0)  -->
<svg enable-background="new -1570 3216.9 512 512" xmlns:cc="http://creativecommons.org/ns#" xmlns:dc="http://purl.org/dc/elements/1.1/" xmlns:rdf="http://www.w3.org/1999/02/22-rdf-syntax-ns#" space="preserve" version="1.1" viewBox="-1570 3216.9 512 512" xmlns="http://www.w3.org/2000/svg">
 <style type="text/css">.st0{display:none;fill:#DA5E27;}
	.st1{fill:#F37E3B;}
	.st2{fill:#DA5E27;}
	.st3{fill:#F37021;}
	.st4{fill:none;}
	.st5{fill:#C95123;}
	.st6{fill:#FFFFFF;}</style>
 <metadata>
  <sfw>
   <slices/>
   <sliceSourceBounds x="-239.5" y="-239.5" width="511" height="511" bottomLeftOrigin="true"/>
  </sfw>
  <rdf:RDF>
   <cc:Work rdf:about="">
    <dc:format>image/svg+xml</dc:format>
    <dc:type rdf:resource="http://purl.org/dc/dcmitype/StillImage"/>
    <dc:title/>
   </cc:Work>
  </rdf:RDF>
 </metadata>
 <path class="st0" d="m-1157 3327.9s-47-30-78.7 32.7 29.5 44.8 3.4 100.3-103.3 74.9-109 70.7-52.1-192.5-52.1-192.5l76.3-105.8 160.1 94.6z"/>
 <path class="st1" d="m-1569.2 3311c-2.5-16.3 8.6-31.4 24.9-33.9l381.4-59.4c16.3-2.5 31.4 8.6 33.9 24.9l70.5 473.1c0 0.6-0.3 1.2-0.9 1.5h-0.3l-1.5-0.6-75.7-41.9-338.9 52.9c-16.3 2.5-31.4-8.6-33.9-24.9" fill="#f37e3b"/>
 <path class="st2" d="m-1475.9 3727.7 338.9-52.6 75.7 41.9 1.5 0.6h0.3c0.6-0.3 0.9-0.9 0.9-1.5l-70.2-473.4c-1.2-7.7-5.5-14.5-11.4-18.8l-361.1 495.6c6.6 6.4 15.9 9.8 25.4 8.2z" fill="#da5e27"/>
 <path class="st3" d="m-1480.2 3267.3-64 9.8c-16.3 2.5-27.4 17.9-24.9 33.9l59.4 392.1c2.5 16.3 17.9 27.4 33.9 24.9l180.7-28-175.4-409.4z" fill="#f37021"/>
 <path class="st4" d="m-1569.2 3311c-2.5-16.3 8.6-31.4 24.9-33.9l381.4-59.4c16.3-2.5 31.4 8.6 33.9 24.9l70.5 473.1c0 0.6-0.3 1.2-0.9 1.5h-0.3l-1.5-0.6-75.7-41.9-338.9 52.9c-16.3 2.5-31.4-8.6-33.9-24.9z" fill="none"/>
 <path class="st5" d="m-1239.8 3375.6-11.1 76.3-6.2 60h-0.6l-27.4-136.4h-48l-26.2 136.7h-0.6l-6.5-51.7-12.3-85h-80v44.9c1.5 1.2 3.1 2.5 4.3 4s2.2 3.1 3.1 4.9c0.6 1.8 1.5 4 2.2 5.8 0.6 1.8 1.2 4 1.8 5.8 0.3 0.9 0.3 1.5 0.3 2.2 0 0.6 0.3 1.2 0.3 1.8 0.3 0.9 0.3 1.5 0.3 2.2 0 0.6 0.3 1.2 0.3 1.5l32.9 177h73.6l24.3-119.4h0.6l21.9 119.4h75.1l32.9-176.4v-0.3s0-0.3 0.3-0.3v-1.8c0-0.3 0-0.3 0.3-0.6v-0.3c0-0.3 0.3-0.3 0.3-0.6v-0.9c0.3-2.2 0.9-4.3 1.2-6.5 0.6-2.2 1.2-4.3 1.8-6.2 0.6-2.2 1.5-4 2.8-5.8 1.2-1.8 2.8-3.7 4.9-5.5v-44.9z" fill="#c95123"/>
 <path class="st6" d="m-1255.2 3363.3-11.1 76.3-6.2 60h-0.6l-27.4-136.4h-48l-26.2 136.7h-0.6l-6.5-51.7-12.3-85h-80v44.9c1.5 1.2 3.1 2.5 4.3 4s2.2 3.4 3.1 4.9c0.9 1.8 1.5 4 2.2 5.8 0.6 1.8 1.2 4 1.8 5.8 0.3 0.9 0.3 1.5 0.6 2.2 0 0.6 0.3 1.2 0.6 1.8 0.3 0.9 0.3 1.5 0.3 2.2 0 0.6 0.3 1.2 0.3 1.5l32.9 177h73.6l24.3-119.4h0.6l21.9 119.4h75.1l32.3-176.4v-0.3s0-0.3 0.3-0.3v-1.8c0-0.3 0-0.3 0.3-0.6v-0.3c0-0.3 0.3-0.3 0.3-0.6v-1.2c0.3-2.2 0.9-4.3 1.2-6.5 0.6-2.2 1.2-4.3 1.8-6.2 0.6-2.2 1.5-4 2.8-5.8 1.2-1.8 2.8-3.7 4.9-5.5v-44.6z" fill="#ffffff"/>
</svg>
