<!-- Generator: Adobe Illustrator 19.1.0, SVG Export Plug-In . SVG Version: 6.00 Build 0)  -->
<svg width="512" height="512" enable-background="new 0 0 30 30" space="preserve" version="1.1" viewBox="0 0 512 512" xmlns="http://www.w3.org/2000/svg">
 <style type="text/css">.st0{fill:#414396;}
	.st1{fill:#08B1EF;}
	.st2{fill:#09B1EE;}
	.st3{fill:#444798;}</style>
 <path class="st0" d="m509.8 275.23c-8.4885-44.141-30.558-79.792-64.513-108.65-1.6977-1.6982-15.279-11.884-18.674-13.581-45.837-32.256-96.769-42.442-152.79-32.256-106.95 18.674-186.74 120.54-159.58 237.67 10.186-1.6982 22.07-3.3954 32.256-5.093-13.581-115.44 84.885-208.81 200.33-198.63 27.163 1.6982 52.628 10.186 74.699 23.767h5.093v3.3954c42.442 25.465 69.606 62.814 81.49 112.05 0 1.6982 1.6977 3.3954 3.3954 6.7907v-18.674c0-5.093-1.6977-5.093-1.6977-6.7907z" fill="#414396" stroke-width="16.977"/>
 <path class="st1" d="m480.94 117.34c-1.6977-1.6982-3.3954-3.3954-3.3954-5.093 1.6977-44.141-16.977-66.209-59.42-73-35.651-5.093-71.302-1.6982-106.95 8.4885-113.74 33.955-212.2 91.676-290.3 183.35-6.7907 6.7907-11.884 15.279-18.674 23.767 0 0-1.6977-1.6982-1.6977-1.6982 0-1.6982 1.6977-3.3954 1.6977-5.093 28.862-49.234 67.907-88.279 112.05-122.23 69.606-54.327 146-93.372 232.58-112.05 28.862-6.7907 59.42-8.4885 89.978 1.6982 25.465 8.4885 45.837 22.07 50.93 50.93 5.093 16.977 0 33.955-6.7907 50.93z" fill="#08b1ef" stroke-width="16.977"/>
 <path class="st2" d="m423.22 176.76h5.093v3.3954c-66.209 98.465-159.58 157.88-271.63 193.53-1.6977 0-1.6977 1.6982-3.3955 1.6982-10.186 1.6982-18.674 5.093-28.862 6.7907-18.674 0-35.651 1.6982-54.327 0-11.884-1.6982-23.767-6.7907-33.955-11.884-27.163-13.581-35.651-47.535-20.372-76.395 0 6.7907 0 11.884 1.6977 18.674 8.4885 32.256 32.256 42.442 62.814 45.837 11.884 1.6982 23.767 0 33.955 0 10.186-1.6982 22.07-3.3955 32.256-5.093 3.3955 0 6.7907 0 10.186-1.6982 33.955-8.4885 64.513-20.372 95.071-35.651 59.42-30.558 113.74-67.907 157.88-118.84 5.093-8.4885 8.4885-15.279 13.581-20.372z" fill="#09b1ee" stroke-width="16.977"/>
 <path class="st3" d="m122.73 380.48c10.186-1.6982 18.674-5.093 28.862-6.7907 20.372 67.907 66.209 110.35 134.12 129.03-8.4885 3.3954-33.955-1.6982-57.721-13.581-49.234-20.372-84.885-56.023-105.26-108.65z" fill="#444798" stroke-width="16.977"/>
 <path class="st2" d="m428.31 175.05v-5.093z" fill="#09b1ee" stroke-width="16.977"/>
</svg>
